<svg width="155" height="158" viewBox="0 0 155 158" fill="none" xmlns="http://www.w3.org/2000/svg">
<path d="M102.648 52.5847L127.078 47.9648C131.05 47.215 134.76 50.0873 134.76 53.9188V76.8639C134.76 98.1056 102.648 128.455 102.648 128.455" stroke="#D69E3D" stroke-width="2.5" stroke-miterlimit="10" stroke-linecap="round" stroke-linejoin="round"/>
<path d="M105.856 140.588H35.2142V155.76H105.856V140.588Z" fill="#F5E7CE" stroke="#D69E3D" stroke-width="2.5" stroke-miterlimit="10" stroke-linecap="round" stroke-linejoin="round"/>
<path d="M102.642 98.1047H38.4225V140.588H102.642V98.1047Z" fill="#F4F0E9" stroke="#D69E3D" stroke-width="2.5" stroke-miterlimit="10" stroke-linecap="round" stroke-linejoin="round"/>
<path d="M32 43.4822C37.1159 45.533 38.4225 52.5842 38.4225 55.6218V98.1051H102.648V43.4822H32Z" fill="#F4F0E9"/>
<path d="M32 43.4822C37.1159 45.533 38.4225 52.5842 38.4225 55.6218V98.1051H102.648V43.4822H32Z" stroke="#D69E3D" stroke-width="2.5" stroke-miterlimit="10" stroke-linecap="round" stroke-linejoin="round"/>
<path d="M99.4337 43.482H41.6368L38.4226 28.3047H102.648L99.4337 43.482Z" fill="#F5E7CE" stroke="#D69E3D" stroke-width="2.5" stroke-miterlimit="10" stroke-linecap="round" stroke-linejoin="round"/>
<path d="M70.5352 43.4822V98.1051" stroke="#D69E3D" stroke-width="2.5" stroke-miterlimit="10" stroke-linecap="round" stroke-linejoin="round"/>
<path d="M51.2676 128.454H89.8028" stroke="#D69E3D" stroke-width="2.5" stroke-miterlimit="10" stroke-linecap="round" stroke-linejoin="round"/>
<path d="M57.6902 119.346H83.3803" stroke="#D69E3D" stroke-width="2.5" stroke-miterlimit="10" stroke-linecap="round" stroke-linejoin="round"/>
<path d="M51.2676 110.245H89.8028" stroke="#D69E3D" stroke-width="2.5" stroke-miterlimit="10" stroke-linecap="round" stroke-linejoin="round"/>
<path d="M70.5352 28.3048V16.1707" stroke="#D69E3D" stroke-width="2.5" stroke-miterlimit="10" stroke-linecap="round" stroke-linejoin="round"/>
<path d="M64.1127 16.1707H76.9578" stroke="#D69E3D" stroke-width="2.5" stroke-miterlimit="10" stroke-linecap="round" stroke-linejoin="round"/>
</svg>
