<svg width="155" height="158" viewBox="0 0 155 158" fill="none" xmlns="http://www.w3.org/2000/svg">
<path d="M124.536 25.9307H42.6454L38.1882 37.5999C34.8867 46.2368 33.1987 46.1133 33.1987 55.3398V155.764H133.988V55.3398C133.988 46.1133 132.3 46.2368 128.999 37.5999L124.536 25.9307Z" fill="#F4F0E9" stroke="#D69E3D" stroke-width="2.5" stroke-miterlimit="10" stroke-linecap="round" stroke-linejoin="round"/>
<path d="M118.236 13.5654H48.945C45.4661 13.5654 42.6453 16.3339 42.6453 19.7483V25.9311H124.536V19.7483C124.536 16.3339 121.715 13.5654 118.236 13.5654Z" fill="#F5E7CE" stroke="#D69E3D" stroke-width="2.5" stroke-miterlimit="10" stroke-linecap="round" stroke-linejoin="round"/>
<path d="M103.766 83.8453L52.5384 134.122L8 90.4044L59.2215 40.1332L74.8134 37.9487L105.991 68.5483L103.766 83.8453Z" fill="#F5E7CE" stroke="#D69E3D" stroke-width="2.5" stroke-miterlimit="10" stroke-linecap="round" stroke-linejoin="round"/>
<path d="M50.3129 92.5886C39.1783 90.4041 36.9525 79.4761 36.9525 79.4761C30.8016 85.5129 31.7972 96.278 39.1783 103.522C46.5595 110.766 57.5281 111.744 63.679 105.707C63.6733 105.707 61.4475 94.7787 50.3129 92.5886Z" fill="#F4F0E9" stroke="#D69E3D" stroke-width="2.5" stroke-miterlimit="10" stroke-linecap="round" stroke-linejoin="round"/>
<path d="M36.9524 79.4761C36.9524 79.4761 39.1782 90.4041 50.3128 92.5886C61.4474 94.7731 63.6732 105.701 63.6732 105.701C69.8241 99.6643 68.8285 88.8991 61.4474 81.655C54.0663 74.4164 43.1033 73.4393 36.9524 79.4761Z" fill="#F4F0E9" stroke="#D69E3D" stroke-width="2.5" stroke-miterlimit="10" stroke-linecap="round" stroke-linejoin="round"/>
<path d="M54.7701 61.9891L63.6732 53.2456" stroke="#D69E3D" stroke-width="2.5" stroke-miterlimit="10" stroke-linecap="round" stroke-linejoin="round"/>
<path d="M65.9047 68.5483L74.8135 59.8047" stroke="#D69E3D" stroke-width="2.5" stroke-miterlimit="10" stroke-linecap="round" stroke-linejoin="round"/>
<path d="M74.8135 77.2923L83.7224 68.5488" stroke="#D69E3D" stroke-width="2.5" stroke-miterlimit="10" stroke-linecap="round" stroke-linejoin="round"/>
<path d="M81.4907 88.2201L90.3996 79.4766" stroke="#D69E3D" stroke-width="2.5" stroke-miterlimit="10" stroke-linecap="round" stroke-linejoin="round"/>
<path d="M89.8906 25.9312C89.8906 25.9312 102.49 39.375 89.8906 52.7458" stroke="#D69E3D" stroke-width="2.5" stroke-miterlimit="10" stroke-linecap="round" stroke-linejoin="round"/>
<path d="M80.4381 134.123H105.637" stroke="#D69E3D" stroke-width="2.5" stroke-miterlimit="10" stroke-linecap="round" stroke-linejoin="round"/>
<path d="M96.1902 121.757H105.637" stroke="#D69E3D" stroke-width="2.5" stroke-miterlimit="10" stroke-linecap="round" stroke-linejoin="round"/>
</svg>
