<svg width="160" height="156" viewBox="0 0 160 156" fill="none" xmlns="http://www.w3.org/2000/svg">
<path d="M80 74.0632L80 155.025" stroke="#D69E3D" stroke-width="2.5" stroke-miterlimit="10" stroke-linecap="round" stroke-linejoin="round"/>
<path d="M62.9446 111.326L79.8784 124.699L96.8061 111.326" stroke="#D69E3D" stroke-width="2.5" stroke-miterlimit="10" stroke-linecap="round" stroke-linejoin="round"/>
<path d="M66.3338 106.309C66.3338 102.216 63.3444 98.8209 59.4077 98.1043C58.645 92.3651 53.7303 87.9196 47.7146 87.9196C45.697 87.9196 43.8271 88.4661 42.1663 89.3407C42.4431 88.3507 42.64 87.3244 42.64 86.2494C42.64 79.7876 37.3316 74.5464 30.7869 74.5464C24.4083 74.5464 19.2414 79.5325 18.983 85.7696C17.4268 85.0287 15.6984 84.5732 13.8531 84.5732C7.30835 84.5732 2 89.8144 2 96.2762C2 102.738 7.30835 107.979 13.8531 107.979C15.6984 107.979 17.4207 107.53 18.983 106.783C19.2414 113.02 24.4083 118.006 30.7869 118.006C32.6322 118.006 34.3545 117.557 35.9169 116.81C36.1752 123.047 41.3421 128.033 47.7207 128.033C54.2654 128.033 59.5738 122.792 59.5738 116.33C59.5738 115.704 59.4815 115.103 59.3893 114.508C63.3259 113.816 66.3338 110.415 66.3338 106.309Z" fill="#F4F0E9" stroke="#D69E3D" stroke-width="2.5" stroke-miterlimit="10" stroke-linecap="round" stroke-linejoin="round"/>
<path d="M101.272 24.9523C99.045 21.4967 94.6777 20.2213 90.9687 21.7032C87.2042 17.2697 80.6411 16.1219 75.5664 19.3164C73.8626 20.3853 72.5832 21.8368 71.6544 23.4583C71.3468 22.4745 70.9593 21.5088 70.3688 20.5979C66.8566 15.1441 59.5307 13.5408 54.007 17.0086C48.6249 20.3914 46.9825 27.3391 50.1565 32.7321C48.4403 32.9325 46.7365 33.4609 45.1803 34.4447C39.6566 37.9125 38.0328 45.1457 41.545 50.5994C45.0573 56.0531 91.9959 56.539 97.378 53.1562C102.902 49.6884 104.526 42.4552 101.013 37.0015C100.675 36.4732 100.269 36.0177 99.8631 35.5622C102.822 32.8778 103.504 28.4201 101.272 24.9523Z" fill="#F4F0E9" stroke="#D69E3D" stroke-width="2.5" stroke-miterlimit="10" stroke-linecap="round" stroke-linejoin="round"/>
<path d="M93.4229 106.309C93.4229 102.216 96.4123 98.8209 100.349 98.1043C101.112 92.3651 106.026 87.9196 112.042 87.9196C114.06 87.9196 115.93 88.4661 117.59 89.3407C117.314 88.3507 117.117 87.3244 117.117 86.2494C117.117 79.7876 122.425 74.5464 128.97 74.5464C135.348 74.5464 140.515 79.5325 140.774 85.7696C142.33 85.0287 144.058 84.5732 145.904 84.5732C152.448 84.5732 157.757 89.8144 157.757 96.2762C157.757 102.738 152.448 107.979 145.904 107.979C144.058 107.979 142.336 107.53 140.774 106.783C140.515 113.02 135.348 118.006 128.97 118.006C127.124 118.006 125.402 117.557 123.84 116.81C123.581 123.047 118.415 128.033 112.036 128.033C105.491 128.033 100.183 122.792 100.183 116.33C100.183 115.704 100.275 115.103 100.367 114.508C96.4246 113.816 93.4229 110.415 93.4229 106.309Z" fill="#F4F0E9" stroke="#D69E3D" stroke-width="2.5" stroke-miterlimit="10" stroke-linecap="round" stroke-linejoin="round"/>
<path d="M69.7168 72.8821C69.7168 68.7888 66.7274 65.3939 62.7908 64.6773C62.028 58.9381 57.1133 54.4925 51.0976 54.4925C49.0801 54.4925 47.2102 55.0391 45.5494 55.9137C45.8262 54.9237 46.023 53.8974 46.023 52.8224C46.023 46.3605 40.7147 41.1194 34.17 41.1194C27.7913 41.1194 22.6244 46.1055 22.3661 52.3426C20.8099 51.6017 19.0814 51.1462 17.2361 51.1462C10.6914 51.1462 5.38306 56.3874 5.38306 62.8492C5.38306 69.3111 10.6914 74.5523 17.2361 74.5523C19.0814 74.5523 20.8037 74.1028 22.3661 73.3558C22.6244 79.593 27.7913 84.5791 34.17 84.5791C36.0153 84.5791 37.7376 84.1297 39.2999 83.3827C39.5583 89.6198 44.7251 94.6059 51.1038 94.6059C57.6485 94.6059 62.9568 89.3648 62.9568 82.9029C62.9568 82.2773 62.8646 81.6761 62.7723 81.0809C66.7151 80.3825 69.7168 76.9876 69.7168 72.8821Z" fill="#F4F0E9" stroke="#D69E3D" stroke-width="2.5" stroke-miterlimit="10" stroke-linecap="round" stroke-linejoin="round"/>
<path d="M93.4229 72.8821C93.4229 68.7888 96.4123 65.3939 100.349 64.6773C101.112 58.9381 106.026 54.4925 112.042 54.4925C114.06 54.4925 115.93 55.0391 117.59 55.9137C117.314 54.9237 117.117 53.8974 117.117 52.8224C117.117 46.3605 122.425 41.1194 128.97 41.1194C135.348 41.1194 140.515 46.1055 140.774 52.3426C142.33 51.6017 144.058 51.1462 145.904 51.1462C152.448 51.1462 157.757 56.3874 157.757 62.8492C157.757 69.3111 152.448 74.5523 145.904 74.5523C144.058 74.5523 142.336 74.1028 140.774 73.3558C140.515 79.593 135.348 84.5791 128.97 84.5791C127.124 84.5791 125.402 84.1297 123.84 83.3827C123.581 89.6198 118.415 94.6059 112.036 94.6059C105.491 94.6059 100.183 89.3648 100.183 82.9029C100.183 82.2773 100.275 81.6761 100.367 81.0809C96.4246 80.3825 93.4229 76.9876 93.4229 72.8821Z" fill="#F4F0E9" stroke="#D69E3D" stroke-width="2.5" stroke-miterlimit="10" stroke-linecap="round" stroke-linejoin="round"/>
<path d="M15.5449 124.699C19.2851 124.699 22.3172 118.712 22.3172 111.326C22.3172 103.94 19.2851 97.9529 15.5449 97.9529C11.8046 97.9529 8.77258 103.94 8.77258 111.326C8.77258 118.712 11.8046 124.699 15.5449 124.699Z" fill="#F5E7CE" stroke="#D69E3D" stroke-width="2.5" stroke-miterlimit="10" stroke-linecap="round" stroke-linejoin="round"/>
<path d="M24.98 56.427C28.3252 54.7756 28.3252 48.0817 24.98 41.4758C21.6347 34.87 16.2109 30.8537 12.8657 32.5051C9.52041 34.1566 9.52041 40.8505 12.8657 47.4563C16.2109 54.0622 21.6347 58.0785 24.98 56.427Z" fill="#F5E7CE" stroke="#D69E3D" stroke-width="2.5" stroke-miterlimit="10" stroke-linecap="round" stroke-linejoin="round"/>
<path d="M90.0338 27.7463C93.774 27.7463 96.8061 21.7589 96.8061 14.3732C96.8061 6.98737 93.774 1 90.0338 1C86.2935 1 83.2615 6.98737 83.2615 14.3732C83.2615 21.7589 86.2935 27.7463 90.0338 27.7463Z" fill="#F5E7CE" stroke="#D69E3D" stroke-width="2.5" stroke-miterlimit="10" stroke-linecap="round" stroke-linejoin="round"/>
<path d="M42.6277 131.379C46.3679 131.379 49.4 127.638 49.4 123.022C49.4 118.407 46.3679 114.666 42.6277 114.666C38.8874 114.666 35.8553 118.407 35.8553 123.022C35.8553 127.638 38.8874 131.379 42.6277 131.379Z" fill="#F5E7CE" stroke="#D69E3D" stroke-width="2.5" stroke-miterlimit="10" stroke-linecap="round" stroke-linejoin="round"/>
<path d="M140.823 84.5799C144.563 84.5799 147.595 80.8384 147.595 76.2232C147.595 71.6079 144.563 67.8665 140.823 67.8665C137.083 67.8665 134.051 71.6079 134.051 76.2232C134.051 80.8384 137.083 84.5799 140.823 84.5799Z" fill="#F5E7CE" stroke="#D69E3D" stroke-width="2.5" stroke-miterlimit="10" stroke-linecap="round" stroke-linejoin="round"/>
<path d="M123.896 131.379C127.636 131.379 130.668 126.89 130.668 121.353C130.668 115.815 127.636 111.326 123.896 111.326C120.155 111.326 117.123 115.815 117.123 121.353C117.123 126.89 120.155 131.379 123.896 131.379Z" fill="#F5E7CE" stroke="#D69E3D" stroke-width="2.5" stroke-miterlimit="10" stroke-linecap="round" stroke-linejoin="round"/>
<path d="M117.726 31.0923C113.18 31.0923 109.397 35.5439 108.425 41.4957C107.724 41.2709 107.011 41.1191 106.26 41.1191C101.715 41.1191 97.9317 45.5707 96.9598 51.5225C96.2586 51.2978 95.5451 51.1459 94.7947 51.1459C92.7525 51.1459 90.8703 52.063 89.3141 53.5874C89.9353 47.4899 87.3211 42.3095 82.8247 41.4349C77.6763 40.4328 72.0173 45.4675 70.1843 52.6764C70.1536 52.7857 70.1536 52.895 70.1228 53.0104C69.0464 52.0873 67.7977 51.4617 66.3891 51.2856C63.5535 50.9334 60.7486 52.397 58.5588 54.9478C58.2144 49.4576 55.3173 45.1274 51.1038 44.599C45.8815 43.9431 40.6778 49.3422 39.4783 56.6543C38.2788 63.9664 41.5451 70.4222 46.7673 71.0781C49.6029 71.4304 52.4078 69.9667 54.5976 67.416C54.942 72.9062 57.8392 77.2363 62.0526 77.7647C63.6888 77.9712 70.6641 84.5849 73.7704 84.5849C76.0401 84.5849 78.0515 82.8237 79.454 80.0786C80.6411 80.8134 81.9451 81.2446 83.323 81.2446C86.2447 81.2446 88.8281 79.368 90.575 76.4772C91.8483 77.3578 93.263 77.8983 94.7823 77.8983C99.328 77.8983 103.111 73.4467 104.083 67.495C104.784 67.7197 105.497 67.8715 106.248 67.8715C110.794 67.8715 114.576 63.4198 115.548 57.4681C116.25 57.6928 116.963 57.8447 117.713 57.8447C122.991 57.8447 127.266 51.8565 127.266 44.4715C127.278 37.0804 123.003 31.0923 117.726 31.0923Z" fill="#F4F0E9" stroke="#D69E3D" stroke-width="2.5" stroke-miterlimit="10" stroke-linecap="round" stroke-linejoin="round"/>
<path d="M100.189 84.5795C103.93 84.5795 106.962 80.0904 106.962 74.5527C106.962 69.015 103.93 64.5259 100.189 64.5259C96.449 64.5259 93.417 69.015 93.417 74.5527C93.417 80.0904 96.449 84.5795 100.189 84.5795Z" fill="#F5E7CE" stroke="#D69E3D" stroke-width="2.5" stroke-miterlimit="10" stroke-linecap="round" stroke-linejoin="round"/>
<path d="M59.5612 91.2653C63.3015 91.2653 66.3335 86.7762 66.3335 81.2385C66.3335 75.7008 63.3015 71.2117 59.5612 71.2117C55.821 71.2117 52.7889 75.7008 52.7889 81.2385C52.7889 86.7762 55.821 91.2653 59.5612 91.2653Z" fill="#F5E7CE" stroke="#D69E3D" stroke-width="2.5" stroke-miterlimit="10" stroke-linecap="round" stroke-linejoin="round"/>
<path d="M42.6339 17.7197L49.4062 22.5115" stroke="#D69E3D" stroke-width="2.5" stroke-miterlimit="10" stroke-linecap="round" stroke-linejoin="round"/>
<path d="M148.709 51.4926L154.368 47.8062" stroke="#D69E3D" stroke-width="2.5" stroke-miterlimit="10" stroke-linecap="round" stroke-linejoin="round"/>
<path d="M8.7723 111.326L2 114.666" stroke="#D69E3D" stroke-width="2.5" stroke-miterlimit="10" stroke-linecap="round" stroke-linejoin="round"/>
<path d="M69.7169 154.785H90.0338" stroke="#D69E3D" stroke-width="2.5" stroke-miterlimit="10" stroke-linecap="round" stroke-linejoin="round"/>
</svg>
